<?xml-stylesheet type='text/css' href='/styles.css' ?>
<svg xmlns="http://www.w3.org/2000/svg" xmlns:xlink="http://www.w3.org/1999/xlink" version="1.2" width="32.90mm" height="15.55mm" viewBox="0.0000 -0.0000 18.7237 8.8515">
<style text="style/css">
<![CDATA[
tspan { white-space: pre; }
]]>
</style>
<line transform="translate(0.0000, 6.7962)" stroke-linejoin="round" stroke-linecap="round" stroke-width="0.1000" stroke="currentColor" x1="0.0500" y1="-0.0000" x2="18.6737" y2="-0.0000"/>
<line transform="translate(0.0000, 5.7962)" stroke-linejoin="round" stroke-linecap="round" stroke-width="0.1000" stroke="currentColor" x1="0.0500" y1="-0.0000" x2="18.6737" y2="-0.0000"/>
<line transform="translate(0.0000, 4.7962)" stroke-linejoin="round" stroke-linecap="round" stroke-width="0.1000" stroke="currentColor" x1="0.0500" y1="-0.0000" x2="18.6737" y2="-0.0000"/>
<line transform="translate(0.0000, 3.7962)" stroke-linejoin="round" stroke-linecap="round" stroke-width="0.1000" stroke="currentColor" x1="0.0500" y1="-0.0000" x2="18.6737" y2="-0.0000"/>
<line transform="translate(0.0000, 2.7962)" stroke-linejoin="round" stroke-linecap="round" stroke-width="0.1000" stroke="currentColor" x1="0.0500" y1="-0.0000" x2="18.6737" y2="-0.0000"/>
<rect transform="translate(0.0000, 7.7962)" x="12.7034" y="-0.1000" width="1.3768" height="0.2000" ry="0.1000" fill="currentColor"/>
<rect transform="translate(0.0000, 7.7962)" x="8.5630" y="-0.1000" width="1.3768" height="0.2000" ry="0.1000" fill="currentColor"/>
<rect transform="translate(0.0000, 7.7962)" x="4.4225" y="-0.1000" width="1.3768" height="0.2000" ry="0.1000" fill="currentColor"/>
<path transform="translate(4.0650, 4.2962) scale(0.0040, -0.0040)" d="M0 0c0 31 25 56 56 56s56 -25 56 -56s-25 -56 -56 -56s-56 25 -56 56z" fill="currentColor"/>
<path transform="translate(4.0650, 5.2962) scale(0.0040, -0.0040)" d="M0 0c0 31 25 56 56 56s56 -25 56 -56s-25 -56 -56 -56s-56 25 -56 56z" fill="currentColor"/>
<path transform="translate(17.8737, 4.2962) scale(0.0040, -0.0040)" d="M0 0c0 31 25 56 56 56s56 -25 56 -56s-25 -56 -56 -56s-56 25 -56 56z" fill="currentColor"/>
<path transform="translate(17.8737, 5.2962) scale(0.0040, -0.0040)" d="M0 0c0 31 25 56 56 56s56 -25 56 -56s-25 -56 -56 -56s-56 25 -56 56z" fill="currentColor"/>
<path transform="translate(9.7103, 5.0362) scale(0.0028, -0.0028)" d="M-148 -571c-18 0 -32 14 -32 32c0 9 4 17 11 23l357 290c5 5 11 7 18 7c18 0 32 -14 32 -32c0 -9 -4 -17 -11 -23l-357 -290c-5 -5 -11 -7 -18 -7z" fill="currentColor"/>
<path transform="translate(9.7103, 5.0362) scale(0.0028, -0.0028)" d="M0 0c0 -196 207 -334 207 -530c0 -71 -15 -140 -41 -206c-5 -10 -14 -13 -23 -13c-14 0 -28 10 -28 26c0 2 1 3 1 5c26 59 42 123 42 188c0 101 -90 205 -158 280h-21v250h21z" fill="currentColor"/>
<rect transform="translate(9.6453, 4.7962)" x="-0.0650" y="0.2000" width="0.1300" height="2.6856" ry="0.0400" fill="currentColor"/>
<path transform="translate(8.7924, 7.7962) scale(0.0028, -0.0028)" d="M208 139c61 0 117 -33 117 -99c0 -71 -52 -119 -99 -147c-34 -20 -71 -32 -110 -32c-61 0 -116 33 -116 99c0 71 51 119 98 147c34 20 71 32 110 32z" fill="currentColor"/>
<rect transform="translate(7.8298, 4.7962)" x="-0.0650" y="-1.5000" width="0.1300" height="3.3139" ry="0.0400" fill="currentColor"/>
<path transform="translate(6.5906, 6.7962) scale(0.0040, -0.0040)" d="M218 136c55 0 108 -28 108 -89c0 -71 -55 -121 -102 -149c-35 -21 -75 -34 -116 -34c-55 0 -108 28 -108 89c0 71 55 121 102 149c35 21 75 34 116 34z" fill="currentColor"/>
<path transform="translate(4.6520, 4.7962)" stroke-width="0.0800" stroke-linejoin="round" stroke-linecap="round" stroke="currentColor" fill="currentColor" d="M0.5722 3.8940C1.3844 4.2303 2.3809 3.8421 2.7516 3.0450L2.7516 3.0450C2.3373 3.7303 1.3408 4.1185 0.5722 3.8940z"/>
<path transform="translate(10.7310, 6.7962) scale(0.0040, -0.0040)" d="M218 136c55 0 108 -28 108 -89c0 -71 -55 -121 -102 -149c-35 -21 -75 -34 -116 -34c-55 0 -108 28 -108 89c0 71 55 121 102 149c35 21 75 34 116 34z" fill="currentColor"/>
<rect transform="translate(11.9702, 4.7962)" x="-0.0650" y="-1.5000" width="0.1300" height="3.3139" ry="0.0400" fill="currentColor"/>
<path transform="translate(12.9328, 7.7962) scale(0.0028, -0.0028)" d="M208 139c61 0 117 -33 117 -99c0 -71 -52 -119 -99 -147c-34 -20 -71 -32 -110 -32c-61 0 -116 33 -116 99c0 71 51 119 98 147c34 20 71 32 110 32z" fill="currentColor"/>
<rect transform="translate(13.7857, 4.7962)" x="-0.0650" y="0.2000" width="0.1300" height="2.6856" ry="0.0400" fill="currentColor"/>
<path transform="translate(13.8507, 5.0362) scale(0.0028, -0.0028)" d="M-148 -571c-18 0 -32 14 -32 32c0 9 4 17 11 23l357 290c5 5 11 7 18 7c18 0 32 -14 32 -32c0 -9 -4 -17 -11 -23l-357 -290c-5 -5 -11 -7 -18 -7z" fill="currentColor"/>
<path transform="translate(13.8507, 5.0362) scale(0.0028, -0.0028)" d="M0 0c0 -196 207 -334 207 -530c0 -71 -15 -140 -41 -206c-5 -10 -14 -13 -23 -13c-14 0 -28 10 -28 26c0 2 1 3 1 5c26 59 42 123 42 188c0 101 -90 205 -158 280h-21v250h21z" fill="currentColor"/>
<path transform="translate(12.9328, 4.7962)" stroke-width="0.0800" stroke-linejoin="round" stroke-linecap="round" stroke="currentColor" fill="currentColor" d="M0.5722 3.8940C1.3844 4.2303 2.3809 3.8421 2.7516 3.0450L2.7516 3.0450C2.3373 3.7303 1.3408 4.1185 0.5722 3.8940z"/>
<path transform="translate(8.7924, 4.7962)" stroke-width="0.0800" stroke-linejoin="round" stroke-linecap="round" stroke="currentColor" fill="currentColor" d="M0.5722 3.8940C1.3844 4.2303 2.3809 3.8421 2.7516 3.0450L2.7516 3.0450C2.3373 3.7303 1.3408 4.1185 0.5722 3.8940z"/>
<text transform="translate(3.2486, 1.9120)" font-family="serif" font-size="2.7719" text-anchor="start" fill="currentColor">
<tspan>1.</tspan>
</text>
<path transform="translate(5.5699, 5.0362) scale(0.0028, -0.0028)" d="M-148 -571c-18 0 -32 14 -32 32c0 9 4 17 11 23l357 290c5 5 11 7 18 7c18 0 32 -14 32 -32c0 -9 -4 -17 -11 -23l-357 -290c-5 -5 -11 -7 -18 -7z" fill="currentColor"/>
<path transform="translate(5.5699, 5.0362) scale(0.0028, -0.0028)" d="M0 0c0 -196 207 -334 207 -530c0 -71 -15 -140 -41 -206c-5 -10 -14 -13 -23 -13c-14 0 -28 10 -28 26c0 2 1 3 1 5c26 59 42 123 42 188c0 101 -90 205 -158 280h-21v250h21z" fill="currentColor"/>
<rect transform="translate(5.5049, 4.7962)" x="-0.0650" y="0.2000" width="0.1300" height="2.6856" ry="0.0400" fill="currentColor"/>
<path transform="translate(0.8000, 5.7962) scale(0.0040, -0.0040)" d="M376 262c4 0 9 1 13 1c155 0 256 -128 256 -261c0 -76 -33 -154 -107 -210c-22 -17 -47 -28 -73 -36c3 -35 5 -70 5 -105c0 -19 -1 -39 -2 -58c-7 -120 -90 -228 -208 -228c-108 0 -195 88 -195 197c0 58 53 103 112 103c54 0 95 -47 95 -103c0 -52 -43 -95 -95 -95
c-11 0 -21 2 -31 6c26 -39 68 -65 117 -65c96 0 157 92 163 191c1 18 2 37 2 55c0 31 -1 61 -4 92c-29 -5 -58 -8 -89 -8c-188 0 -333 172 -333 374c0 177 131 306 248 441c-19 62 -37 125 -45 190c-6 52 -7 104 -7 156c0 115 55 224 149 292c3 2 7 3 10 3c4 0 7 0 10 -3
c71 -84 133 -245 133 -358c0 -143 -86 -255 -180 -364c21 -68 39 -138 56 -207zM461 -203c68 24 113 95 113 164c0 90 -66 179 -173 190c24 -116 46 -231 60 -354zM74 28c0 -135 129 -247 264 -247c28 0 55 2 82 6c-14 127 -37 245 -63 364c-79 -8 -124 -61 -124 -119
c0 -44 25 -91 81 -123c5 -5 7 -10 7 -15c0 -11 -10 -22 -22 -22c-3 0 -6 1 -9 2c-80 43 -117 115 -117 185c0 88 58 174 160 197c-14 58 -29 117 -46 175c-107 -121 -213 -243 -213 -403zM408 1045c-99 -48 -162 -149 -162 -259c0 -74 18 -133 36 -194
c80 97 146 198 146 324c0 55 -4 79 -20 129z" fill="currentColor"/>
<path transform="translate(4.6520, 7.7962) scale(0.0028, -0.0028)" d="M208 139c61 0 117 -33 117 -99c0 -71 -52 -119 -99 -147c-34 -20 -71 -32 -110 -32c-61 0 -116 33 -116 99c0 71 51 119 98 147c34 20 71 32 110 32z" fill="currentColor"/>
<rect transform="translate(16.1107, 4.7962)" x="-0.0650" y="-1.5000" width="0.1300" height="3.3139" ry="0.0400" fill="currentColor"/>
<path transform="translate(14.8714, 6.7962) scale(0.0040, -0.0040)" d="M218 136c55 0 108 -28 108 -89c0 -71 -55 -121 -102 -149c-35 -21 -75 -34 -116 -34c-55 0 -108 28 -108 89c0 71 55 121 102 149c35 21 75 34 116 34z" fill="currentColor"/>
</svg>
