<?xml-stylesheet type='text/css' href='/styles.css' ?>
<svg xmlns="http://www.w3.org/2000/svg" xmlns:xlink="http://www.w3.org/1999/xlink" version="1.2" width="62.54mm" height="17.08mm" viewBox="0.0000 -0.0000 35.5867 9.7202">
<style text="style/css">
<![CDATA[
tspan { white-space: pre; }
]]>
</style>
<line transform="translate(0.0000, 8.1702)" stroke-linejoin="round" stroke-linecap="round" stroke-width="0.1000" stroke="currentColor" x1="0.0500" y1="-0.0000" x2="35.5367" y2="-0.0000"/>
<line transform="translate(0.0000, 7.1702)" stroke-linejoin="round" stroke-linecap="round" stroke-width="0.1000" stroke="currentColor" x1="0.0500" y1="-0.0000" x2="35.5367" y2="-0.0000"/>
<line transform="translate(0.0000, 6.1702)" stroke-linejoin="round" stroke-linecap="round" stroke-width="0.1000" stroke="currentColor" x1="0.0500" y1="-0.0000" x2="35.5367" y2="-0.0000"/>
<line transform="translate(0.0000, 5.1702)" stroke-linejoin="round" stroke-linecap="round" stroke-width="0.1000" stroke="currentColor" x1="0.0500" y1="-0.0000" x2="35.5367" y2="-0.0000"/>
<line transform="translate(0.0000, 4.1702)" stroke-linejoin="round" stroke-linecap="round" stroke-width="0.1000" stroke="currentColor" x1="0.0500" y1="-0.0000" x2="35.5367" y2="-0.0000"/>
<path transform="translate(34.7367, 5.6702) scale(0.0040, -0.0040)" d="M0 0c0 31 25 56 56 56s56 -25 56 -56s-25 -56 -56 -56s-56 25 -56 56z" fill="currentColor"/>
<path transform="translate(34.7367, 6.6702) scale(0.0040, -0.0040)" d="M0 0c0 31 25 56 56 56s56 -25 56 -56s-25 -56 -56 -56s-56 25 -56 56z" fill="currentColor"/>
<path transform="translate(4.0650, 5.6702) scale(0.0040, -0.0040)" d="M0 0c0 31 25 56 56 56s56 -25 56 -56s-25 -56 -56 -56s-56 25 -56 56z" fill="currentColor"/>
<path transform="translate(4.0650, 6.6702) scale(0.0040, -0.0040)" d="M0 0c0 31 25 56 56 56s56 -25 56 -56s-25 -56 -56 -56s-56 25 -56 56z" fill="currentColor"/>
<rect transform="translate(16.2188, 6.1702)" x="-0.0650" y="-2.0000" width="0.1300" height="3.3139" ry="0.0400" fill="currentColor"/>
<path transform="translate(14.9796, 7.6702) scale(0.0040, -0.0040)" d="M218 136c55 0 108 -28 108 -89c0 -71 -55 -121 -102 -149c-35 -21 -75 -34 -116 -34c-55 0 -108 28 -108 89c0 71 55 121 102 149c35 21 75 34 116 34z" fill="currentColor"/>
<rect transform="translate(13.7146, 6.1702)" x="-0.0650" y="-2.0000" width="0.1300" height="2.8139" ry="0.0400" fill="currentColor"/>
<path transform="translate(12.4754, 7.1702) scale(0.0040, -0.0040)" d="M218 136c55 0 108 -28 108 -89c0 -71 -55 -121 -102 -149c-35 -21 -75 -34 -116 -34c-55 0 -108 28 -108 89c0 71 55 121 102 149c35 21 75 34 116 34z" fill="currentColor"/>
<rect transform="translate(9.3084, 6.1702)" x="-0.0650" y="-2.2069" width="0.1300" height="3.0208" ry="0.0400" fill="currentColor"/>
<path transform="translate(9.8234, 6.6702) scale(0.0040, -0.0040)" d="M0 0c0 31 25 56 56 56s56 -25 56 -56s-25 -56 -56 -56s-56 25 -56 56z" fill="currentColor"/>
<path transform="translate(8.0692, 7.1702) scale(0.0040, -0.0040)" d="M218 136c55 0 108 -28 108 -89c0 -71 -55 -121 -102 -149c-35 -21 -75 -34 -116 -34c-55 0 -108 28 -108 89c0 71 55 121 102 149c35 21 75 34 116 34z" fill="currentColor"/>
<polygon transform="translate(6.9892, 3.3602)" stroke-linejoin="round" stroke-linecap="round" stroke-width="0.0800" fill="currentColor" stroke="currentColor" points="2.3442 0.4200 2.3442 0.8200 0.0400 0.2000 0.0400 -0.2000"/>
<polygon transform="translate(6.9892, 4.1702)" stroke-linejoin="round" stroke-linecap="round" stroke-width="0.0800" fill="currentColor" stroke="currentColor" points="1.1250 0.1030 1.1250 0.5030 0.0400 0.2000 0.0400 -0.2000"/>
<polygon transform="translate(13.6496, 4.1702)" stroke-linejoin="round" stroke-linecap="round" stroke-width="0.0800" fill="currentColor" stroke="currentColor" points="5.0984 -0.2000 5.0984 0.2000 0.0400 0.2000 0.0400 -0.2000"/>
<polygon transform="translate(13.6496, 4.9802)" stroke-linejoin="round" stroke-linecap="round" stroke-width="0.0800" fill="currentColor" stroke="currentColor" points="2.5942 -0.2000 2.5942 0.2000 0.0400 0.2000 0.0400 -0.2000"/>
<path transform="translate(25.2900, 6.1702)" stroke-width="0.0800" stroke-linejoin="round" stroke-linecap="round" stroke="currentColor" fill="currentColor" d="M0.8521 2.0000C1.3766 2.6051 2.5316 2.6051 3.0561 2.0000L3.0561 2.0000C2.5316 2.4851 1.3766 2.4851 0.8521 2.0000z"/>
<rect transform="translate(26.5292, 6.1702)" x="-0.0650" y="-2.5000" width="0.1300" height="3.3139" ry="0.0400" fill="currentColor"/>
<path transform="translate(25.2900, 7.1702) scale(0.0040, -0.0040)" d="M218 136c55 0 108 -28 108 -89c0 -71 -55 -121 -102 -149c-35 -21 -75 -34 -116 -34c-55 0 -108 28 -108 89c0 71 55 121 102 149c35 21 75 34 116 34z" fill="currentColor"/>
<path transform="translate(22.6380, 5.6702) scale(0.0040, -0.0040)" d="M0 0c0 31 25 56 56 56s56 -25 56 -56s-25 -56 -56 -56s-56 25 -56 56z" fill="currentColor"/>
<path transform="translate(21.1880, 6.1702) scale(0.0040, -0.0040)" d="M72 -250l117 326c-34 -12 -69 -22 -105 -22c-46 0 -87 33 -87 79c0 40 33 72 73 72c25 0 48 -15 56 -39c10 -28 6 -59 35 -59c16 0 54 48 61 63c6 12 23 12 28 0l-123 -420c-8 -7 -17 -10 -27 -10s-20 3 -28 10z" fill="currentColor"/>
<rect transform="translate(18.7230, 6.1702)" x="-0.0650" y="-2.0000" width="0.1300" height="2.8139" ry="0.0400" fill="currentColor"/>
<path transform="translate(17.4838, 7.1702) scale(0.0040, -0.0040)" d="M218 136c55 0 108 -28 108 -89c0 -71 -55 -121 -102 -149c-35 -21 -75 -34 -116 -34c-55 0 -108 28 -108 89c0 71 55 121 102 149c35 21 75 34 116 34z" fill="currentColor"/>
<rect transform="translate(7.0542, 6.1702)" x="-0.0650" y="-2.7931" width="0.1300" height="2.6070" ry="0.0400" fill="currentColor"/>
<text transform="translate(2.5487, 1.9120)" font-family="serif" font-size="2.7719" text-anchor="start" fill="currentColor">
<tspan>13.</tspan>
</text>
<path transform="translate(0.8000, 7.1702) scale(0.0040, -0.0040)" d="M376 262c4 0 9 1 13 1c155 0 256 -128 256 -261c0 -76 -33 -154 -107 -210c-22 -17 -47 -28 -73 -36c3 -35 5 -70 5 -105c0 -19 -1 -39 -2 -58c-7 -120 -90 -228 -208 -228c-108 0 -195 88 -195 197c0 58 53 103 112 103c54 0 95 -47 95 -103c0 -52 -43 -95 -95 -95
c-11 0 -21 2 -31 6c26 -39 68 -65 117 -65c96 0 157 92 163 191c1 18 2 37 2 55c0 31 -1 61 -4 92c-29 -5 -58 -8 -89 -8c-188 0 -333 172 -333 374c0 177 131 306 248 441c-19 62 -37 125 -45 190c-6 52 -7 104 -7 156c0 115 55 224 149 292c3 2 7 3 10 3c4 0 7 0 10 -3
c71 -84 133 -245 133 -358c0 -143 -86 -255 -180 -364c21 -68 39 -138 56 -207zM461 -203c68 24 113 95 113 164c0 90 -66 179 -173 190c24 -116 46 -231 60 -354zM74 28c0 -135 129 -247 264 -247c28 0 55 2 82 6c-14 127 -37 245 -63 364c-79 -8 -124 -61 -124 -119
c0 -44 25 -91 81 -123c5 -5 7 -10 7 -15c0 -11 -10 -22 -22 -22c-3 0 -6 1 -9 2c-80 43 -117 115 -117 185c0 88 58 174 160 197c-14 58 -29 117 -46 175c-107 -121 -213 -243 -213 -403zM408 1045c-99 -48 -162 -149 -162 -259c0 -74 18 -133 36 -194
c80 97 146 198 146 324c0 55 -4 79 -20 129z" fill="currentColor"/>
<path transform="translate(5.8150, 6.1702) scale(0.0040, -0.0040)" d="M218 136c55 0 108 -28 108 -89c0 -71 -55 -121 -102 -149c-35 -21 -75 -34 -116 -34c-55 0 -108 28 -108 89c0 71 55 121 102 149c35 21 75 34 116 34z" fill="currentColor"/>
<path transform="translate(26.5942, 3.7102) scale(0.0040, -0.0040)" d="M0 0c0 -177 201 -293 201 -470c0 -33 -9 -65 -23 -95c18 -37 29 -75 29 -117c0 -63 -15 -125 -41 -183c-5 -8 -13 -12 -20 -12c-13 0 -26 11 -23 27c26 52 42 110 42 168c0 97 -94 190 -165 257v-75h-16v500h16zM151 -517c5 15 8 31 8 47c0 96 -91 190 -159 257
c0 -118 90 -206 151 -304z" fill="currentColor"/>
<rect transform="translate(29.1698, 6.1702)" x="-0.0650" y="-2.5000" width="0.1300" height="3.2410" ry="0.0400" fill="currentColor"/>
<path transform="translate(29.6848, 6.6702) scale(0.0040, -0.0040)" d="M0 0c0 31 25 56 56 56s56 -25 56 -56s-25 -56 -56 -56s-56 25 -56 56z" fill="currentColor"/>
<path transform="translate(27.8574, 7.1702) scale(0.0040, -0.0040)" d="M314 65c0 24 -21 41 -42 41c-4 0 -8 0 -12 -1c-31 -9 -78 -40 -115 -64s-84 -53 -104 -78c-7 -8 -10 -18 -10 -28c0 -24 21 -41 42 -41c4 0 8 0 12 1c31 9 77 40 114 64s84 53 104 78c7 8 11 18 11 28zM262 136c46 0 82 -21 82 -71c0 -19 -4 -39 -10 -57
c-12 -37 -32 -72 -64 -94c-53 -36 -113 -50 -187 -50c-46 0 -83 21 -83 71c0 19 5 39 11 57c12 37 31 72 63 94c53 36 114 50 188 50z" fill="currentColor"/>
</svg>
