<?xml-stylesheet type='text/css' href='/styles.css' ?>
<svg xmlns="http://www.w3.org/2000/svg" xmlns:xlink="http://www.w3.org/1999/xlink" version="1.2" width="47.63mm" height="12.90mm" viewBox="0.0000 -0.0000 27.1027 7.3412">
<style text="style/css">
<![CDATA[
tspan { white-space: pre; }
]]>
</style>
<line transform="translate(0.0000, 6.7962)" stroke-linejoin="round" stroke-linecap="round" stroke-width="0.1000" stroke="currentColor" x1="0.0500" y1="-0.0000" x2="27.0527" y2="-0.0000"/>
<line transform="translate(0.0000, 5.7962)" stroke-linejoin="round" stroke-linecap="round" stroke-width="0.1000" stroke="currentColor" x1="0.0500" y1="-0.0000" x2="27.0527" y2="-0.0000"/>
<line transform="translate(0.0000, 4.7962)" stroke-linejoin="round" stroke-linecap="round" stroke-width="0.1000" stroke="currentColor" x1="0.0500" y1="-0.0000" x2="27.0527" y2="-0.0000"/>
<line transform="translate(0.0000, 3.7962)" stroke-linejoin="round" stroke-linecap="round" stroke-width="0.1000" stroke="currentColor" x1="0.0500" y1="-0.0000" x2="27.0527" y2="-0.0000"/>
<line transform="translate(0.0000, 2.7962)" stroke-linejoin="round" stroke-linecap="round" stroke-width="0.1000" stroke="currentColor" x1="0.0500" y1="-0.0000" x2="27.0527" y2="-0.0000"/>
<path transform="translate(4.1833, 4.2962) scale(0.0040, -0.0040)" d="M0 0c0 31 25 56 56 56s56 -25 56 -56s-25 -56 -56 -56s-56 25 -56 56z" fill="currentColor"/>
<path transform="translate(4.1833, 5.2962) scale(0.0040, -0.0040)" d="M0 0c0 31 25 56 56 56s56 -25 56 -56s-25 -56 -56 -56s-56 25 -56 56z" fill="currentColor"/>
<path transform="translate(26.2527, 4.2962) scale(0.0040, -0.0040)" d="M0 0c0 31 25 56 56 56s56 -25 56 -56s-25 -56 -56 -56s-56 25 -56 56z" fill="currentColor"/>
<path transform="translate(26.2527, 5.2962) scale(0.0040, -0.0040)" d="M0 0c0 31 25 56 56 56s56 -25 56 -56s-25 -56 -56 -56s-56 25 -56 56z" fill="currentColor"/>
<path transform="translate(8.5008, 4.7962) scale(0.0040, -0.0040)" d="M72 -250l117 326c-34 -12 -69 -22 -105 -22c-46 0 -87 33 -87 79c0 40 33 72 73 72c25 0 48 -15 56 -39c10 -28 6 -59 35 -59c16 0 54 48 61 63c6 12 23 12 28 0l-123 -420c-8 -7 -17 -10 -27 -10s-20 3 -28 10z" fill="currentColor"/>
<path transform="translate(9.9508, 4.2962) scale(0.0040, -0.0040)" d="M0 0c0 31 25 56 56 56s56 -25 56 -56s-25 -56 -56 -56s-56 25 -56 56z" fill="currentColor"/>
<path transform="translate(12.6027, 4.7962) scale(0.0040, -0.0040)" d="M-23 -116c0 28 11 42 40 42c33 0 78 -13 119 -31l-132 158c-7 9 -10 17 -10 25c0 34 50 66 87 99c25 22 37 52 37 83c0 24 -8 49 -25 69l-35 42c-3 3 -4 7 -4 10c0 9 9 15 17 15c4 0 8 -1 11 -5l151 -180c7 -9 10 -17 10 -25c0 -34 -50 -66 -87 -99
c-25 -22 -37 -52 -37 -83c0 -24 7 -49 24 -69l84 -99c3 -3 4 -7 4 -10c0 -9 -8 -16 -16 -16c-4 0 -9 2 -12 6c-18 21 -63 38 -97 38c-41 0 -53 -26 -53 -67c0 -35 11 -74 28 -94c5 -6 0 -13 -6 -13c-2 0 -4 0 -6 2c-45 54 -92 148 -92 202z" fill="currentColor"/>
<path transform="translate(17.1527, 4.7962) scale(0.0040, -0.0040)" d="M-23 -116c0 28 11 42 40 42c33 0 78 -13 119 -31l-132 158c-7 9 -10 17 -10 25c0 34 50 66 87 99c25 22 37 52 37 83c0 24 -8 49 -25 69l-35 42c-3 3 -4 7 -4 10c0 9 9 15 17 15c4 0 8 -1 11 -5l151 -180c7 -9 10 -17 10 -25c0 -34 -50 -66 -87 -99
c-25 -22 -37 -52 -37 -83c0 -24 7 -49 24 -69l84 -99c3 -3 4 -7 4 -10c0 -9 -8 -16 -16 -16c-4 0 -9 2 -12 6c-18 21 -63 38 -97 38c-41 0 -53 -26 -53 -67c0 -35 11 -74 28 -94c5 -6 0 -13 -6 -13c-2 0 -4 0 -6 2c-45 54 -92 148 -92 202z" fill="currentColor"/>
<path transform="translate(21.7027, 4.7962) scale(0.0040, -0.0040)" d="M-23 -116c0 28 11 42 40 42c33 0 78 -13 119 -31l-132 158c-7 9 -10 17 -10 25c0 34 50 66 87 99c25 22 37 52 37 83c0 24 -8 49 -25 69l-35 42c-3 3 -4 7 -4 10c0 9 9 15 17 15c4 0 8 -1 11 -5l151 -180c7 -9 10 -17 10 -25c0 -34 -50 -66 -87 -99
c-25 -22 -37 -52 -37 -83c0 -24 7 -49 24 -69l84 -99c3 -3 4 -7 4 -10c0 -9 -8 -16 -16 -16c-4 0 -9 2 -12 6c-18 21 -63 38 -97 38c-41 0 -53 -26 -53 -67c0 -35 11 -74 28 -94c5 -6 0 -13 -6 -13c-2 0 -4 0 -6 2c-45 54 -92 148 -92 202z" fill="currentColor"/>
<path transform="translate(5.9333, 6.7962) scale(0.0040, -0.0040)" d="M218 136c55 0 108 -28 108 -89c0 -71 -55 -121 -102 -149c-35 -21 -75 -34 -116 -34c-55 0 -108 28 -108 89c0 71 55 121 102 149c35 21 75 34 116 34z" fill="currentColor"/>
<path transform="translate(0.8000, 3.7962) scale(0.0040, -0.0040)" d="M557 -125c0 28 23 51 51 51s51 -23 51 -51s-23 -51 -51 -51s-51 23 -51 51zM557 125c0 28 23 51 51 51s51 -23 51 -51s-23 -51 -51 -51s-51 23 -51 51zM232 263c172 0 293 -88 293 -251c0 -263 -263 -414 -516 -521c-3 -3 -6 -4 -9 -4c-7 0 -13 6 -13 13c0 3 1 6 4 9
c202 118 412 265 412 493c0 120 -63 235 -171 235c-74 0 -129 -54 -154 -126c11 5 22 8 34 8c55 0 100 -45 100 -100c0 -58 -44 -106 -100 -106c-60 0 -112 47 -112 106c0 133 102 244 232 244z" fill="currentColor"/>
<text transform="translate(2.6670, 1.9120)" font-family="serif" font-size="2.7719" text-anchor="start" fill="currentColor">
<tspan>15.</tspan>
</text>
<rect transform="translate(7.1725, 4.7962)" x="-0.0650" y="-1.5000" width="0.1300" height="3.3139" ry="0.0400" fill="currentColor"/>
<path transform="translate(7.2375, 3.3362) scale(0.0040, -0.0040)" d="M0 0c0 -177 201 -293 201 -470c0 -33 -9 -65 -23 -95c18 -37 29 -75 29 -117c0 -63 -15 -125 -41 -183c-5 -8 -13 -12 -20 -12c-13 0 -26 11 -23 27c26 52 42 110 42 168c0 97 -94 190 -165 257v-75h-16v500h16zM151 -517c5 15 8 31 8 47c0 96 -91 190 -159 257
c0 -118 90 -206 151 -304z" fill="currentColor"/>
</svg>
