<?xml-stylesheet type='text/css' href='/styles.css' ?>
<svg xmlns="http://www.w3.org/2000/svg" xmlns:xlink="http://www.w3.org/1999/xlink" version="1.2" width="22.36mm" height="18.72mm" viewBox="0.0000 -0.0000 12.7251 10.6540">
<style text="style/css">
<![CDATA[
tspan { white-space: pre; }
]]>
</style>
<line transform="translate(0.0000, 9.1040)" stroke-linejoin="round" stroke-linecap="round" stroke-width="0.1000" stroke="currentColor" x1="0.0500" y1="-0.0000" x2="12.6751" y2="-0.0000"/>
<line transform="translate(0.0000, 8.1040)" stroke-linejoin="round" stroke-linecap="round" stroke-width="0.1000" stroke="currentColor" x1="0.0500" y1="-0.0000" x2="12.6751" y2="-0.0000"/>
<line transform="translate(0.0000, 7.1040)" stroke-linejoin="round" stroke-linecap="round" stroke-width="0.1000" stroke="currentColor" x1="0.0500" y1="-0.0000" x2="12.6751" y2="-0.0000"/>
<line transform="translate(0.0000, 6.1040)" stroke-linejoin="round" stroke-linecap="round" stroke-width="0.1000" stroke="currentColor" x1="0.0500" y1="-0.0000" x2="12.6751" y2="-0.0000"/>
<line transform="translate(0.0000, 5.1040)" stroke-linejoin="round" stroke-linecap="round" stroke-width="0.1000" stroke="currentColor" x1="0.0500" y1="-0.0000" x2="12.6751" y2="-0.0000"/>
<path transform="translate(11.8751, 6.6040) scale(0.0040, -0.0040)" d="M0 0c0 31 25 56 56 56s56 -25 56 -56s-25 -56 -56 -56s-56 25 -56 56z" fill="currentColor"/>
<path transform="translate(11.8751, 7.6040) scale(0.0040, -0.0040)" d="M0 0c0 31 25 56 56 56s56 -25 56 -56s-25 -56 -56 -56s-56 25 -56 56z" fill="currentColor"/>
<path transform="translate(4.0650, 6.6040) scale(0.0040, -0.0040)" d="M0 0c0 31 25 56 56 56s56 -25 56 -56s-25 -56 -56 -56s-56 25 -56 56z" fill="currentColor"/>
<path transform="translate(4.0650, 7.6040) scale(0.0040, -0.0040)" d="M0 0c0 31 25 56 56 56s56 -25 56 -56s-25 -56 -56 -56s-56 25 -56 56z" fill="currentColor"/>
<rect transform="translate(0.0000, 3.1040)" x="5.3245" y="-0.1000" width="2.9430" height="0.2000" ry="0.1000" fill="currentColor"/>
<rect transform="translate(0.0000, 4.1040)" x="5.3245" y="-0.1000" width="2.9430" height="0.2000" ry="0.1000" fill="currentColor"/>
<path transform="translate(8.2270, 2.6040) scale(0.0040, -0.0040)" d="M0 0c0 31 25 56 56 56s56 -25 56 -56s-25 -56 -56 -56s-56 25 -56 56z" fill="currentColor"/>
<path transform="translate(5.8150, 3.1040) scale(0.0040, -0.0040)" d="M213 112c-50 0 -69 -43 -69 -88c0 -77 57 -136 134 -136c50 0 69 43 69 88c0 77 -57 136 -134 136zM491 0c0 -43 -34 -75 -72 -96c-53 -29 -114 -40 -174 -40s-120 11 -173 40c-38 21 -72 53 -72 96s34 75 72 96c53 29 113 40 173 40s121 -11 174 -40
c38 -21 72 -53 72 -96z" fill="currentColor"/>
<path transform="translate(0.8000, 8.1040) scale(0.0040, -0.0040)" d="M376 262c4 0 9 1 13 1c155 0 256 -128 256 -261c0 -76 -33 -154 -107 -210c-22 -17 -47 -28 -73 -36c3 -35 5 -70 5 -105c0 -19 -1 -39 -2 -58c-7 -120 -90 -228 -208 -228c-108 0 -195 88 -195 197c0 58 53 103 112 103c54 0 95 -47 95 -103c0 -52 -43 -95 -95 -95
c-11 0 -21 2 -31 6c26 -39 68 -65 117 -65c96 0 157 92 163 191c1 18 2 37 2 55c0 31 -1 61 -4 92c-29 -5 -58 -8 -89 -8c-188 0 -333 172 -333 374c0 177 131 306 248 441c-19 62 -37 125 -45 190c-6 52 -7 104 -7 156c0 115 55 224 149 292c3 2 7 3 10 3c4 0 7 0 10 -3
c71 -84 133 -245 133 -358c0 -143 -86 -255 -180 -364c21 -68 39 -138 56 -207zM461 -203c68 24 113 95 113 164c0 90 -66 179 -173 190c24 -116 46 -231 60 -354zM74 28c0 -135 129 -247 264 -247c28 0 55 2 82 6c-14 127 -37 245 -63 364c-79 -8 -124 -61 -124 -119
c0 -44 25 -91 81 -123c5 -5 7 -10 7 -15c0 -11 -10 -22 -22 -22c-3 0 -6 1 -9 2c-80 43 -117 115 -117 185c0 88 58 174 160 197c-14 58 -29 117 -46 175c-107 -121 -213 -243 -213 -403zM408 1045c-99 -48 -162 -149 -162 -259c0 -74 18 -133 36 -194
c80 97 146 198 146 324c0 55 -4 79 -20 129z" fill="currentColor"/>
<text transform="translate(1.5279, 3.3280)" font-family="serif" font-style="italic" font-size="1.3860" text-anchor="start" fill="currentColor">
<tspan>15</tspan>
</text>
<text transform="translate(2.5487, 1.9120)" font-family="serif" font-size="2.7719" text-anchor="start" fill="currentColor">
<tspan>30.</tspan>
</text>
</svg>
