<?xml-stylesheet type='text/css' href='/styles.css' ?>
<svg xmlns="http://www.w3.org/2000/svg" xmlns:xlink="http://www.w3.org/1999/xlink" version="1.2" width="35.59mm" height="16.70mm" viewBox="0.0000 -0.0000 20.2544 9.5012">
<style text="style/css">
<![CDATA[
tspan { white-space: pre; }
]]>
</style>
<line transform="translate(0.0000, 9.4512)" stroke-linejoin="round" stroke-linecap="round" stroke-width="0.1000" stroke="currentColor" x1="0.0500" y1="-0.0000" x2="20.2044" y2="-0.0000"/>
<line transform="translate(0.0000, 8.4512)" stroke-linejoin="round" stroke-linecap="round" stroke-width="0.1000" stroke="currentColor" x1="0.0500" y1="-0.0000" x2="20.2044" y2="-0.0000"/>
<line transform="translate(0.0000, 7.4512)" stroke-linejoin="round" stroke-linecap="round" stroke-width="0.1000" stroke="currentColor" x1="0.0500" y1="-0.0000" x2="20.2044" y2="-0.0000"/>
<line transform="translate(0.0000, 6.4512)" stroke-linejoin="round" stroke-linecap="round" stroke-width="0.1000" stroke="currentColor" x1="0.0500" y1="-0.0000" x2="20.2044" y2="-0.0000"/>
<line transform="translate(0.0000, 5.4512)" stroke-linejoin="round" stroke-linecap="round" stroke-width="0.1000" stroke="currentColor" x1="0.0500" y1="-0.0000" x2="20.2044" y2="-0.0000"/>
<path transform="translate(19.4044, 6.9512) scale(0.0040, -0.0040)" d="M0 0c0 31 25 56 56 56s56 -25 56 -56s-25 -56 -56 -56s-56 25 -56 56z" fill="currentColor"/>
<path transform="translate(19.4044, 7.9512) scale(0.0040, -0.0040)" d="M0 0c0 31 25 56 56 56s56 -25 56 -56s-25 -56 -56 -56s-56 25 -56 56z" fill="currentColor"/>
<path transform="translate(4.1833, 6.9512) scale(0.0040, -0.0040)" d="M0 0c0 31 25 56 56 56s56 -25 56 -56s-25 -56 -56 -56s-56 25 -56 56z" fill="currentColor"/>
<path transform="translate(4.1833, 7.9512) scale(0.0040, -0.0040)" d="M0 0c0 31 25 56 56 56s56 -25 56 -56s-25 -56 -56 -56s-56 25 -56 56z" fill="currentColor"/>
<rect transform="translate(0.0000, 4.4512)" x="15.3741" y="-0.1000" width="1.9563" height="0.2000" ry="0.1000" fill="currentColor"/>
<rect transform="translate(0.0000, 3.4512)" x="13.1199" y="-0.1000" width="1.9563" height="0.2000" ry="0.1000" fill="currentColor"/>
<rect transform="translate(0.0000, 4.4512)" x="13.1199" y="-0.1000" width="1.9563" height="0.2000" ry="0.1000" fill="currentColor"/>
<rect transform="translate(0.0000, 3.4512)" x="10.6157" y="-0.1000" width="1.9563" height="0.2000" ry="0.1000" fill="currentColor"/>
<rect transform="translate(0.0000, 4.4512)" x="10.6157" y="-0.1000" width="1.9563" height="0.2000" ry="0.1000" fill="currentColor"/>
<rect transform="translate(0.0000, 3.4512)" x="8.1115" y="-0.1000" width="1.9563" height="0.2000" ry="0.1000" fill="currentColor"/>
<rect transform="translate(0.0000, 4.4512)" x="8.1115" y="-0.1000" width="1.9563" height="0.2000" ry="0.1000" fill="currentColor"/>
<rect transform="translate(0.0000, 3.4512)" x="5.6073" y="-0.1000" width="1.9563" height="0.2000" ry="0.1000" fill="currentColor"/>
<rect transform="translate(0.0000, 4.4512)" x="5.6073" y="-0.1000" width="1.9563" height="0.2000" ry="0.1000" fill="currentColor"/>
<polygon transform="translate(5.9333, 7.4512)" stroke-linejoin="round" stroke-linecap="round" stroke-width="0.0800" fill="currentColor" stroke="currentColor" points="2.5942 -0.0100 2.5942 0.3900 0.0400 0.2000 0.0400 -0.2000"/>
<path transform="translate(8.4375, 3.4512) scale(0.0040, -0.0040)" d="M218 136c55 0 108 -28 108 -89c0 -71 -55 -121 -102 -149c-35 -21 -75 -34 -116 -34c-55 0 -108 28 -108 89c0 71 55 121 102 149c35 21 75 34 116 34z" fill="currentColor"/>
<rect transform="translate(8.5025, 7.4512)" x="-0.0650" y="-3.8139" width="0.1300" height="3.9992" ry="0.0400" fill="currentColor"/>
<path transform="translate(10.9418, 3.4512) scale(0.0040, -0.0040)" d="M218 136c55 0 108 -28 108 -89c0 -71 -55 -121 -102 -149c-35 -21 -75 -34 -116 -34c-55 0 -108 28 -108 89c0 71 55 121 102 149c35 21 75 34 116 34z" fill="currentColor"/>
<rect transform="translate(11.0068, 7.4512)" x="-0.0650" y="-3.8139" width="0.1300" height="3.8139" ry="0.0400" fill="currentColor"/>
<path transform="translate(8.4375, 7.4512)" stroke-width="0.0800" stroke-linejoin="round" stroke-linecap="round" stroke="currentColor" fill="currentColor" d="M0.8521 -4.7500C1.3589 -5.3405 2.4495 -5.3405 2.9563 -4.7500L2.9563 -4.7500C2.4495 -5.2205 1.3589 -5.2205 0.8521 -4.7500z"/>
<path transform="translate(13.4460, 3.4512) scale(0.0040, -0.0040)" d="M218 136c55 0 108 -28 108 -89c0 -71 -55 -121 -102 -149c-35 -21 -75 -34 -116 -34c-55 0 -108 28 -108 89c0 71 55 121 102 149c35 21 75 34 116 34z" fill="currentColor"/>
<rect transform="translate(13.5110, 7.4512)" x="-0.0650" y="-3.8139" width="0.1300" height="3.8139" ry="0.0400" fill="currentColor"/>
<path transform="translate(15.7002, 4.4512) scale(0.0040, -0.0040)" d="M218 136c55 0 108 -28 108 -89c0 -71 -55 -121 -102 -149c-35 -21 -75 -34 -116 -34c-55 0 -108 28 -108 89c0 71 55 121 102 149c35 21 75 34 116 34z" fill="currentColor"/>
<rect transform="translate(15.7652, 7.4512)" x="-0.0650" y="-2.8139" width="0.1300" height="3.3139" ry="0.0400" fill="currentColor"/>
<polygon transform="translate(10.9418, 7.4512)" stroke-linejoin="round" stroke-linecap="round" stroke-width="0.0800" fill="currentColor" stroke="currentColor" points="2.5942 -0.2000 2.5942 0.2000 0.0400 0.2000 0.0400 -0.2000"/>
<path transform="translate(5.9333, 2.9512) scale(0.0040, -0.0040)" d="M218 136c55 0 108 -28 108 -89c0 -71 -55 -121 -102 -149c-35 -21 -75 -34 -116 -34c-55 0 -108 28 -108 89c0 71 55 121 102 149c35 21 75 34 116 34z" fill="currentColor"/>
<path transform="translate(0.8000, 6.4512) scale(0.0040, -0.0040)" d="M557 -125c0 28 23 51 51 51s51 -23 51 -51s-23 -51 -51 -51s-51 23 -51 51zM557 125c0 28 23 51 51 51s51 -23 51 -51s-23 -51 -51 -51s-51 23 -51 51zM232 263c172 0 293 -88 293 -251c0 -263 -263 -414 -516 -521c-3 -3 -6 -4 -9 -4c-7 0 -13 6 -13 13c0 3 1 6 4 9
c202 118 412 265 412 493c0 120 -63 235 -171 235c-74 0 -129 -54 -154 -126c11 5 22 8 34 8c55 0 100 -45 100 -100c0 -58 -44 -106 -100 -106c-60 0 -112 47 -112 106c0 133 102 244 232 244z" fill="currentColor"/>
<text transform="translate(2.6670, 1.9120)" font-family="serif" font-size="2.7719" text-anchor="start" fill="currentColor">
<tspan>44.</tspan>
</text>
<rect transform="translate(5.9983, 7.4512)" x="-0.0650" y="-4.3139" width="0.1300" height="4.3186" ry="0.0400" fill="currentColor"/>
</svg>
