<?xml-stylesheet type='text/css' href='/styles.css' ?>
<svg xmlns="http://www.w3.org/2000/svg" xmlns:xlink="http://www.w3.org/1999/xlink" version="1.2" width="26.09mm" height="17.08mm" viewBox="0.0000 -0.0000 14.8477 9.7202">
<style text="style/css">
<![CDATA[
tspan { white-space: pre; }
]]>
</style>
<line transform="translate(0.0000, 8.1702)" stroke-linejoin="round" stroke-linecap="round" stroke-width="0.1000" stroke="currentColor" x1="0.0500" y1="-0.0000" x2="14.7977" y2="-0.0000"/>
<line transform="translate(0.0000, 7.1702)" stroke-linejoin="round" stroke-linecap="round" stroke-width="0.1000" stroke="currentColor" x1="0.0500" y1="-0.0000" x2="14.7977" y2="-0.0000"/>
<line transform="translate(0.0000, 6.1702)" stroke-linejoin="round" stroke-linecap="round" stroke-width="0.1000" stroke="currentColor" x1="0.0500" y1="-0.0000" x2="14.7977" y2="-0.0000"/>
<line transform="translate(0.0000, 5.1702)" stroke-linejoin="round" stroke-linecap="round" stroke-width="0.1000" stroke="currentColor" x1="0.0500" y1="-0.0000" x2="14.7977" y2="-0.0000"/>
<line transform="translate(0.0000, 4.1702)" stroke-linejoin="round" stroke-linecap="round" stroke-width="0.1000" stroke="currentColor" x1="0.0500" y1="-0.0000" x2="14.7977" y2="-0.0000"/>
<path transform="translate(13.9977, 5.6702) scale(0.0040, -0.0040)" d="M0 0c0 31 25 56 56 56s56 -25 56 -56s-25 -56 -56 -56s-56 25 -56 56z" fill="currentColor"/>
<path transform="translate(13.9977, 6.6702) scale(0.0040, -0.0040)" d="M0 0c0 31 25 56 56 56s56 -25 56 -56s-25 -56 -56 -56s-56 25 -56 56z" fill="currentColor"/>
<path transform="translate(4.0650, 5.6702) scale(0.0040, -0.0040)" d="M0 0c0 31 25 56 56 56s56 -25 56 -56s-25 -56 -56 -56s-56 25 -56 56z" fill="currentColor"/>
<path transform="translate(4.0650, 6.6702) scale(0.0040, -0.0040)" d="M0 0c0 31 25 56 56 56s56 -25 56 -56s-25 -56 -56 -56s-56 25 -56 56z" fill="currentColor"/>
<rect transform="translate(0.0000, 3.1702)" x="11.3184" y="-0.1000" width="1.8053" height="0.2000" ry="0.1000" fill="currentColor"/>
<path transform="translate(0.8000, 7.1702) scale(0.0040, -0.0040)" d="M376 262c4 0 9 1 13 1c155 0 256 -128 256 -261c0 -76 -33 -154 -107 -210c-22 -17 -47 -28 -73 -36c3 -35 5 -70 5 -105c0 -19 -1 -39 -2 -58c-7 -120 -90 -228 -208 -228c-108 0 -195 88 -195 197c0 58 53 103 112 103c54 0 95 -47 95 -103c0 -52 -43 -95 -95 -95
c-11 0 -21 2 -31 6c26 -39 68 -65 117 -65c96 0 157 92 163 191c1 18 2 37 2 55c0 31 -1 61 -4 92c-29 -5 -58 -8 -89 -8c-188 0 -333 172 -333 374c0 177 131 306 248 441c-19 62 -37 125 -45 190c-6 52 -7 104 -7 156c0 115 55 224 149 292c3 2 7 3 10 3c4 0 7 0 10 -3
c71 -84 133 -245 133 -358c0 -143 -86 -255 -180 -364c21 -68 39 -138 56 -207zM461 -203c68 24 113 95 113 164c0 90 -66 179 -173 190c24 -116 46 -231 60 -354zM74 28c0 -135 129 -247 264 -247c28 0 55 2 82 6c-14 127 -37 245 -63 364c-79 -8 -124 -61 -124 -119
c0 -44 25 -91 81 -123c5 -5 7 -10 7 -15c0 -11 -10 -22 -22 -22c-3 0 -6 1 -9 2c-80 43 -117 115 -117 185c0 88 58 174 160 197c-14 58 -29 117 -46 175c-107 -121 -213 -243 -213 -403zM408 1045c-99 -48 -162 -149 -162 -259c0 -74 18 -133 36 -194
c80 97 146 198 146 324c0 55 -4 79 -20 129z" fill="currentColor"/>
<path transform="translate(11.4934, 2.6702) scale(0.0040, -0.0040)" d="M218 136c55 0 108 -28 108 -89c0 -71 -55 -121 -102 -149c-35 -21 -75 -34 -116 -34c-55 0 -108 28 -108 89c0 71 55 121 102 149c35 21 75 34 116 34z" fill="currentColor"/>
<rect transform="translate(11.5584, 6.1702)" x="-0.0650" y="-3.3139" width="0.1300" height="3.3230" ry="0.0400" fill="currentColor"/>
<path transform="translate(10.3434, 2.6702) scale(0.0040, -0.0040)" d="M27 41l-1 -66v-11c0 -22 1 -44 4 -66c45 38 93 80 93 139c0 33 -14 67 -43 67c-31 0 -52 -30 -53 -63zM-15 -138l-12 595c8 5 18 8 27 8s19 -3 27 -8l-7 -345c25 21 58 34 91 34c52 0 89 -48 89 -102c0 -80 -86 -117 -147 -169c-15 -13 -24 -38 -45 -38
c-13 0 -23 11 -23 25z" fill="currentColor"/>
<text transform="translate(2.5487, 1.9120)" font-family="serif" font-size="2.7719" text-anchor="start" fill="currentColor">
<tspan>51.</tspan>
</text>
<polygon transform="translate(5.8150, 6.1702)" stroke-linejoin="round" stroke-linecap="round" stroke-width="0.0800" fill="currentColor" stroke="currentColor" points="5.7684 -1.0100 5.7684 -0.6100 0.0400 0.2000 0.0400 -0.2000"/>
<polygon transform="translate(5.8150, 6.9802)" stroke-linejoin="round" stroke-linecap="round" stroke-width="0.0800" fill="currentColor" stroke="currentColor" points="5.7684 -1.0100 5.7684 -0.6100 0.0400 0.2000 0.0400 -0.2000"/>
<rect transform="translate(5.8800, 6.1702)" x="-0.0650" y="-1.8139" width="0.1300" height="2.6148" ry="0.0400" fill="currentColor"/>
<path transform="translate(8.3192, 3.6702) scale(0.0040, -0.0040)" d="M218 136c55 0 108 -28 108 -89c0 -71 -55 -121 -102 -149c-35 -21 -75 -34 -116 -34c-55 0 -108 28 -108 89c0 71 55 121 102 149c35 21 75 34 116 34z" fill="currentColor"/>
<path transform="translate(5.8150, 4.1702) scale(0.0040, -0.0040)" d="M218 136c55 0 108 -28 108 -89c0 -71 -55 -121 -102 -149c-35 -21 -75 -34 -116 -34c-55 0 -108 28 -108 89c0 71 55 121 102 149c35 21 75 34 116 34z" fill="currentColor"/>
<rect transform="translate(8.3842, 6.1702)" x="-0.0650" y="-2.3139" width="0.1300" height="2.7656" ry="0.0400" fill="currentColor"/>
</svg>
