<?xml-stylesheet type='text/css' href='/styles.css' ?>
<svg xmlns="http://www.w3.org/2000/svg" xmlns:xlink="http://www.w3.org/1999/xlink" version="1.2" width="21.90mm" height="14.07mm" viewBox="0.0000 -0.0000 12.4618 8.0071">
<style text="style/css">
<![CDATA[
tspan { white-space: pre; }
]]>
</style>
<line transform="translate(0.0000, 6.7962)" stroke-linejoin="round" stroke-linecap="round" stroke-width="0.1000" stroke="currentColor" x1="0.0500" y1="-0.0000" x2="12.4118" y2="-0.0000"/>
<line transform="translate(0.0000, 5.7962)" stroke-linejoin="round" stroke-linecap="round" stroke-width="0.1000" stroke="currentColor" x1="0.0500" y1="-0.0000" x2="12.4118" y2="-0.0000"/>
<line transform="translate(0.0000, 4.7962)" stroke-linejoin="round" stroke-linecap="round" stroke-width="0.1000" stroke="currentColor" x1="0.0500" y1="-0.0000" x2="12.4118" y2="-0.0000"/>
<line transform="translate(0.0000, 3.7962)" stroke-linejoin="round" stroke-linecap="round" stroke-width="0.1000" stroke="currentColor" x1="0.0500" y1="-0.0000" x2="12.4118" y2="-0.0000"/>
<line transform="translate(0.0000, 2.7962)" stroke-linejoin="round" stroke-linecap="round" stroke-width="0.1000" stroke="currentColor" x1="0.0500" y1="-0.0000" x2="12.4118" y2="-0.0000"/>
<path transform="translate(4.1833, 4.2962) scale(0.0040, -0.0040)" d="M0 0c0 31 25 56 56 56s56 -25 56 -56s-25 -56 -56 -56s-56 25 -56 56z" fill="currentColor"/>
<path transform="translate(4.1833, 5.2962) scale(0.0040, -0.0040)" d="M0 0c0 31 25 56 56 56s56 -25 56 -56s-25 -56 -56 -56s-56 25 -56 56z" fill="currentColor"/>
<path transform="translate(11.6118, 4.2962) scale(0.0040, -0.0040)" d="M0 0c0 31 25 56 56 56s56 -25 56 -56s-25 -56 -56 -56s-56 25 -56 56z" fill="currentColor"/>
<path transform="translate(11.6118, 5.2962) scale(0.0040, -0.0040)" d="M0 0c0 31 25 56 56 56s56 -25 56 -56s-25 -56 -56 -56s-56 25 -56 56z" fill="currentColor"/>
<polygon transform="translate(7.1075, 1.9862)" stroke-linejoin="round" stroke-linecap="round" stroke-width="0.0800" fill="currentColor" stroke="currentColor" points="3.2642 -0.8900 3.2642 -0.4900 0.0400 0.2000 0.0400 -0.2000"/>
<polygon transform="translate(7.1075, 2.7962)" stroke-linejoin="round" stroke-linecap="round" stroke-width="0.0800" fill="currentColor" stroke="currentColor" points="3.2642 -0.8900 3.2642 -0.4900 0.0400 0.2000 0.0400 -0.2000"/>
<rect transform="translate(10.3468, 4.7962)" x="-0.0650" y="-3.4864" width="0.1300" height="4.3003" ry="0.0400" fill="currentColor"/>
<path transform="translate(7.9576, 5.7962) scale(0.0040, -0.0040)" d="M27 41l-1 -66v-11c0 -22 1 -44 4 -66c45 38 93 80 93 139c0 33 -14 67 -43 67c-31 0 -52 -30 -53 -63zM-15 -138l-12 595c8 5 18 8 27 8s19 -3 27 -8l-7 -345c25 21 58 34 91 34c52 0 89 -48 89 -102c0 -80 -86 -117 -147 -169c-15 -13 -24 -38 -45 -38
c-13 0 -23 11 -23 25z" fill="currentColor"/>
<rect transform="translate(7.1725, 4.7962)" x="-0.0650" y="-2.8236" width="0.1300" height="4.6375" ry="0.0400" fill="currentColor"/>
<path transform="translate(9.1076, 5.7962) scale(0.0040, -0.0040)" d="M218 136c55 0 108 -28 108 -89c0 -71 -55 -121 -102 -149c-35 -21 -75 -34 -116 -34c-55 0 -108 28 -108 89c0 71 55 121 102 149c35 21 75 34 116 34z" fill="currentColor"/>
<path transform="translate(5.9333, 6.7962) scale(0.0040, -0.0040)" d="M218 136c55 0 108 -28 108 -89c0 -71 -55 -121 -102 -149c-35 -21 -75 -34 -116 -34c-55 0 -108 28 -108 89c0 71 55 121 102 149c35 21 75 34 116 34z" fill="currentColor"/>
<path transform="translate(0.8000, 3.7962) scale(0.0040, -0.0040)" d="M557 -125c0 28 23 51 51 51s51 -23 51 -51s-23 -51 -51 -51s-51 23 -51 51zM557 125c0 28 23 51 51 51s51 -23 51 -51s-23 -51 -51 -51s-51 23 -51 51zM232 263c172 0 293 -88 293 -251c0 -263 -263 -414 -516 -521c-3 -3 -6 -4 -9 -4c-7 0 -13 6 -13 13c0 3 1 6 4 9
c202 118 412 265 412 493c0 120 -63 235 -171 235c-74 0 -129 -54 -154 -126c11 5 22 8 34 8c55 0 100 -45 100 -100c0 -58 -44 -106 -100 -106c-60 0 -112 47 -112 106c0 133 102 244 232 244z" fill="currentColor"/>
<text transform="translate(1.3977, 8.0071)" font-family="serif" font-style="italic" font-size="1.3860" text-anchor="start" fill="currentColor">
<tspan>8</tspan>
</text>
<text transform="translate(2.6670, 1.9120)" font-family="serif" font-size="2.7719" text-anchor="start" fill="currentColor">
<tspan>52.</tspan>
</text>
</svg>
