<?xml-stylesheet type='text/css' href='/styles.css' ?>
<svg xmlns="http://www.w3.org/2000/svg" xmlns:xlink="http://www.w3.org/1999/xlink" version="1.2" width="95.15mm" height="16.36mm" viewBox="0.0000 -0.0000 54.1459 9.3070">
<style text="style/css">
<![CDATA[
tspan { white-space: pre; }
]]>
</style>
<line transform="translate(0.0000, 6.7620)" stroke-linejoin="round" stroke-linecap="round" stroke-width="0.1000" stroke="currentColor" x1="0.0500" y1="-0.0000" x2="54.0959" y2="-0.0000"/>
<line transform="translate(0.0000, 5.7620)" stroke-linejoin="round" stroke-linecap="round" stroke-width="0.1000" stroke="currentColor" x1="0.0500" y1="-0.0000" x2="54.0959" y2="-0.0000"/>
<line transform="translate(0.0000, 4.7620)" stroke-linejoin="round" stroke-linecap="round" stroke-width="0.1000" stroke="currentColor" x1="0.0500" y1="-0.0000" x2="54.0959" y2="-0.0000"/>
<line transform="translate(0.0000, 3.7620)" stroke-linejoin="round" stroke-linecap="round" stroke-width="0.1000" stroke="currentColor" x1="0.0500" y1="-0.0000" x2="54.0959" y2="-0.0000"/>
<line transform="translate(0.0000, 2.7620)" stroke-linejoin="round" stroke-linecap="round" stroke-width="0.1000" stroke="currentColor" x1="0.0500" y1="-0.0000" x2="54.0959" y2="-0.0000"/>
<rect transform="translate(0.0000, 7.7620)" x="27.6657" y="-0.1000" width="1.9563" height="0.2000" ry="0.1000" fill="currentColor"/>
<rect transform="translate(0.0000, 8.7620)" x="27.6657" y="-0.1000" width="1.9563" height="0.2000" ry="0.1000" fill="currentColor"/>
<rect transform="translate(0.0000, 7.7620)" x="25.1615" y="-0.1000" width="1.9563" height="0.2000" ry="0.1000" fill="currentColor"/>
<rect transform="translate(0.0000, 8.7620)" x="25.1615" y="-0.1000" width="1.9563" height="0.2000" ry="0.1000" fill="currentColor"/>
<rect transform="translate(0.0000, 7.7620)" x="22.6573" y="-0.1000" width="1.9563" height="0.2000" ry="0.1000" fill="currentColor"/>
<rect transform="translate(0.0000, 8.7620)" x="22.6573" y="-0.1000" width="1.9563" height="0.2000" ry="0.1000" fill="currentColor"/>
<path transform="translate(53.2959, 4.2620) scale(0.0040, -0.0040)" d="M0 0c0 31 25 56 56 56s56 -25 56 -56s-25 -56 -56 -56s-56 25 -56 56z" fill="currentColor"/>
<path transform="translate(53.2959, 5.2620) scale(0.0040, -0.0040)" d="M0 0c0 31 25 56 56 56s56 -25 56 -56s-25 -56 -56 -56s-56 25 -56 56z" fill="currentColor"/>
<path transform="translate(4.1833, 4.2620) scale(0.0040, -0.0040)" d="M0 0c0 31 25 56 56 56s56 -25 56 -56s-25 -56 -56 -56s-56 25 -56 56z" fill="currentColor"/>
<path transform="translate(4.1833, 5.2620) scale(0.0040, -0.0040)" d="M0 0c0 31 25 56 56 56s56 -25 56 -56s-25 -56 -56 -56s-56 25 -56 56z" fill="currentColor"/>
<path transform="translate(19.5833, 4.7620) scale(0.0040, -0.0040)" d="M72 -250l117 326c-34 -12 -69 -22 -105 -22c-46 0 -87 33 -87 79c0 40 33 72 73 72c25 0 48 -15 56 -39c10 -28 6 -59 35 -59c16 0 54 48 61 63c6 12 23 12 28 0l-123 -420c-8 -7 -17 -10 -27 -10s-20 3 -28 10z" fill="currentColor"/>
<path transform="translate(15.0333, 4.7620) scale(0.0040, -0.0040)" d="M-23 -116c0 28 11 42 40 42c33 0 78 -13 119 -31l-132 158c-7 9 -10 17 -10 25c0 34 50 66 87 99c25 22 37 52 37 83c0 24 -8 49 -25 69l-35 42c-3 3 -4 7 -4 10c0 9 9 15 17 15c4 0 8 -1 11 -5l151 -180c7 -9 10 -17 10 -25c0 -34 -50 -66 -87 -99
c-25 -22 -37 -52 -37 -83c0 -24 7 -49 24 -69l84 -99c3 -3 4 -7 4 -10c0 -9 -8 -16 -16 -16c-4 0 -9 2 -12 6c-18 21 -63 38 -97 38c-41 0 -53 -26 -53 -67c0 -35 11 -74 28 -94c5 -6 0 -13 -6 -13c-2 0 -4 0 -6 2c-45 54 -92 148 -92 202z" fill="currentColor"/>
<path transform="translate(10.4833, 4.7620) scale(0.0040, -0.0040)" d="M-23 -116c0 28 11 42 40 42c33 0 78 -13 119 -31l-132 158c-7 9 -10 17 -10 25c0 34 50 66 87 99c25 22 37 52 37 83c0 24 -8 49 -25 69l-35 42c-3 3 -4 7 -4 10c0 9 9 15 17 15c4 0 8 -1 11 -5l151 -180c7 -9 10 -17 10 -25c0 -34 -50 -66 -87 -99
c-25 -22 -37 -52 -37 -83c0 -24 7 -49 24 -69l84 -99c3 -3 4 -7 4 -10c0 -9 -8 -16 -16 -16c-4 0 -9 2 -12 6c-18 21 -63 38 -97 38c-41 0 -53 -26 -53 -67c0 -35 11 -74 28 -94c5 -6 0 -13 -6 -13c-2 0 -4 0 -6 2c-45 54 -92 148 -92 202z" fill="currentColor"/>
<polygon transform="translate(24.1575, 4.7620)" stroke-linejoin="round" stroke-linecap="round" stroke-width="0.0800" fill="currentColor" stroke="currentColor" points="2.5942 -0.2000 2.5942 0.2000 0.0400 0.2000 0.0400 -0.2000"/>
<polygon transform="translate(24.1575, 5.5720)" stroke-linejoin="round" stroke-linecap="round" stroke-width="0.0800" fill="currentColor" stroke="currentColor" points="2.5942 -0.2000 2.5942 0.2000 0.0400 0.2000 0.0400 -0.2000"/>
<path transform="translate(31.6960, 4.7620) scale(0.0040, -0.0040)" d="M72 -250l117 326c-34 -12 -69 -22 -105 -22c-46 0 -87 33 -87 79c0 40 33 72 73 72c25 0 48 -15 56 -39c10 -28 6 -59 35 -59c16 0 54 48 61 63c6 12 23 12 28 0l-123 -420c-8 -7 -17 -10 -27 -10s-20 3 -28 10z" fill="currentColor"/>
<path transform="translate(29.2960, 4.8020) scale(0.0040, -0.0040)" d="M0 0c0 -197 207 -336 207 -533c0 -71 -15 -141 -41 -207c-5 -8 -13 -12 -20 -12c-13 0 -26 11 -23 27c26 61 42 126 42 192c0 103 -94 208 -165 283h-16v250h16z" fill="currentColor"/>
<rect transform="translate(29.2310, 4.7620)" x="-0.0650" y="-0.0000" width="0.1300" height="3.8139" ry="0.0400" fill="currentColor"/>
<path transform="translate(27.9917, 8.7620) scale(0.0040, -0.0040)" d="M218 136c55 0 108 -28 108 -89c0 -71 -55 -121 -102 -149c-35 -21 -75 -34 -116 -34c-55 0 -108 28 -108 89c0 71 55 121 102 149c35 21 75 34 116 34z" fill="currentColor"/>
<rect transform="translate(26.7267, 4.7620)" x="-0.0650" y="0.0000" width="0.1300" height="3.8139" ry="0.0400" fill="currentColor"/>
<path transform="translate(25.4875, 8.7620) scale(0.0040, -0.0040)" d="M218 136c55 0 108 -28 108 -89c0 -71 -55 -121 -102 -149c-35 -21 -75 -34 -116 -34c-55 0 -108 28 -108 89c0 71 55 121 102 149c35 21 75 34 116 34z" fill="currentColor"/>
<rect transform="translate(24.2225, 4.7620)" x="-0.0650" y="0.0000" width="0.1300" height="3.8139" ry="0.0400" fill="currentColor"/>
<path transform="translate(22.9833, 8.7620) scale(0.0040, -0.0040)" d="M218 136c55 0 108 -28 108 -89c0 -71 -55 -121 -102 -149c-35 -21 -75 -34 -116 -34c-55 0 -108 28 -108 89c0 71 55 121 102 149c35 21 75 34 116 34z" fill="currentColor"/>
<path transform="translate(35.0960, 4.7620) scale(0.0040, -0.0040)" d="M-23 -116c0 28 11 42 40 42c33 0 78 -13 119 -31l-132 158c-7 9 -10 17 -10 25c0 34 50 66 87 99c25 22 37 52 37 83c0 24 -8 49 -25 69l-35 42c-3 3 -4 7 -4 10c0 9 9 15 17 15c4 0 8 -1 11 -5l151 -180c7 -9 10 -17 10 -25c0 -34 -50 -66 -87 -99
c-25 -22 -37 -52 -37 -83c0 -24 7 -49 24 -69l84 -99c3 -3 4 -7 4 -10c0 -9 -8 -16 -16 -16c-4 0 -9 2 -12 6c-18 21 -63 38 -97 38c-41 0 -53 -26 -53 -67c0 -35 11 -74 28 -94c5 -6 0 -13 -6 -13c-2 0 -4 0 -6 2c-45 54 -92 148 -92 202z" fill="currentColor"/>
<path transform="translate(5.9333, 4.7620) scale(0.0040, -0.0040)" d="M-23 -116c0 28 11 42 40 42c33 0 78 -13 119 -31l-132 158c-7 9 -10 17 -10 25c0 34 50 66 87 99c25 22 37 52 37 83c0 24 -8 49 -25 69l-35 42c-3 3 -4 7 -4 10c0 9 9 15 17 15c4 0 8 -1 11 -5l151 -180c7 -9 10 -17 10 -25c0 -34 -50 -66 -87 -99
c-25 -22 -37 -52 -37 -83c0 -24 7 -49 24 -69l84 -99c3 -3 4 -7 4 -10c0 -9 -8 -16 -16 -16c-4 0 -9 2 -12 6c-18 21 -63 38 -97 38c-41 0 -53 -26 -53 -67c0 -35 11 -74 28 -94c5 -6 0 -13 -6 -13c-2 0 -4 0 -6 2c-45 54 -92 148 -92 202z" fill="currentColor"/>
<path transform="translate(39.6460, 4.7620) scale(0.0040, -0.0040)" d="M-23 -116c0 28 11 42 40 42c33 0 78 -13 119 -31l-132 158c-7 9 -10 17 -10 25c0 34 50 66 87 99c25 22 37 52 37 83c0 24 -8 49 -25 69l-35 42c-3 3 -4 7 -4 10c0 9 9 15 17 15c4 0 8 -1 11 -5l151 -180c7 -9 10 -17 10 -25c0 -34 -50 -66 -87 -99
c-25 -22 -37 -52 -37 -83c0 -24 7 -49 24 -69l84 -99c3 -3 4 -7 4 -10c0 -9 -8 -16 -16 -16c-4 0 -9 2 -12 6c-18 21 -63 38 -97 38c-41 0 -53 -26 -53 -67c0 -35 11 -74 28 -94c5 -6 0 -13 -6 -13c-2 0 -4 0 -6 2c-45 54 -92 148 -92 202z" fill="currentColor"/>
<path transform="translate(0.8000, 3.7620) scale(0.0040, -0.0040)" d="M557 -125c0 28 23 51 51 51s51 -23 51 -51s-23 -51 -51 -51s-51 23 -51 51zM557 125c0 28 23 51 51 51s51 -23 51 -51s-23 -51 -51 -51s-51 23 -51 51zM232 263c172 0 293 -88 293 -251c0 -263 -263 -414 -516 -521c-3 -3 -6 -4 -9 -4c-7 0 -13 6 -13 13c0 3 1 6 4 9
c202 118 412 265 412 493c0 120 -63 235 -171 235c-74 0 -129 -54 -154 -126c11 5 22 8 34 8c55 0 100 -45 100 -100c0 -58 -44 -106 -100 -106c-60 0 -112 47 -112 106c0 133 102 244 232 244z" fill="currentColor"/>
<text transform="translate(3.3670, 1.8779)" font-family="serif" font-size="2.7719" text-anchor="start" fill="currentColor">
<tspan>7.</tspan>
</text>
<path transform="translate(48.7459, 4.7620) scale(0.0040, -0.0040)" d="M-23 -116c0 28 11 42 40 42c33 0 78 -13 119 -31l-132 158c-7 9 -10 17 -10 25c0 34 50 66 87 99c25 22 37 52 37 83c0 24 -8 49 -25 69l-35 42c-3 3 -4 7 -4 10c0 9 9 15 17 15c4 0 8 -1 11 -5l151 -180c7 -9 10 -17 10 -25c0 -34 -50 -66 -87 -99
c-25 -22 -37 -52 -37 -83c0 -24 7 -49 24 -69l84 -99c3 -3 4 -7 4 -10c0 -9 -8 -16 -16 -16c-4 0 -9 2 -12 6c-18 21 -63 38 -97 38c-41 0 -53 -26 -53 -67c0 -35 11 -74 28 -94c5 -6 0 -13 -6 -13c-2 0 -4 0 -6 2c-45 54 -92 148 -92 202z" fill="currentColor"/>
<path transform="translate(44.1960, 4.7620) scale(0.0040, -0.0040)" d="M-23 -116c0 28 11 42 40 42c33 0 78 -13 119 -31l-132 158c-7 9 -10 17 -10 25c0 34 50 66 87 99c25 22 37 52 37 83c0 24 -8 49 -25 69l-35 42c-3 3 -4 7 -4 10c0 9 9 15 17 15c4 0 8 -1 11 -5l151 -180c7 -9 10 -17 10 -25c0 -34 -50 -66 -87 -99
c-25 -22 -37 -52 -37 -83c0 -24 7 -49 24 -69l84 -99c3 -3 4 -7 4 -10c0 -9 -8 -16 -16 -16c-4 0 -9 2 -12 6c-18 21 -63 38 -97 38c-41 0 -53 -26 -53 -67c0 -35 11 -74 28 -94c5 -6 0 -13 -6 -13c-2 0 -4 0 -6 2c-45 54 -92 148 -92 202z" fill="currentColor"/>
</svg>
