<?xml-stylesheet type='text/css' href='/styles.css' ?>
<svg xmlns="http://www.w3.org/2000/svg" xmlns:xlink="http://www.w3.org/1999/xlink" version="1.2" width="43.87mm" height="14.77mm" viewBox="0.0000 -0.0000 24.9635 8.4034">
<style text="style/css">
<![CDATA[
tspan { white-space: pre; }
]]>
</style>
<line transform="translate(0.0000, 6.7962)" stroke-linejoin="round" stroke-linecap="round" stroke-width="0.1000" stroke="currentColor" x1="0.0500" y1="-0.0000" x2="24.9135" y2="-0.0000"/>
<line transform="translate(0.0000, 5.7962)" stroke-linejoin="round" stroke-linecap="round" stroke-width="0.1000" stroke="currentColor" x1="0.0500" y1="-0.0000" x2="24.9135" y2="-0.0000"/>
<line transform="translate(0.0000, 4.7962)" stroke-linejoin="round" stroke-linecap="round" stroke-width="0.1000" stroke="currentColor" x1="0.0500" y1="-0.0000" x2="24.9135" y2="-0.0000"/>
<line transform="translate(0.0000, 3.7962)" stroke-linejoin="round" stroke-linecap="round" stroke-width="0.1000" stroke="currentColor" x1="0.0500" y1="-0.0000" x2="24.9135" y2="-0.0000"/>
<line transform="translate(0.0000, 2.7962)" stroke-linejoin="round" stroke-linecap="round" stroke-width="0.1000" stroke="currentColor" x1="0.0500" y1="-0.0000" x2="24.9135" y2="-0.0000"/>
<path transform="translate(24.1135, 4.2962) scale(0.0040, -0.0040)" d="M0 0c0 31 25 56 56 56s56 -25 56 -56s-25 -56 -56 -56s-56 25 -56 56z" fill="currentColor"/>
<path transform="translate(24.1135, 5.2962) scale(0.0040, -0.0040)" d="M0 0c0 31 25 56 56 56s56 -25 56 -56s-25 -56 -56 -56s-56 25 -56 56z" fill="currentColor"/>
<path transform="translate(4.1833, 4.2962) scale(0.0040, -0.0040)" d="M0 0c0 31 25 56 56 56s56 -25 56 -56s-25 -56 -56 -56s-56 25 -56 56z" fill="currentColor"/>
<path transform="translate(4.1833, 5.2962) scale(0.0040, -0.0040)" d="M0 0c0 31 25 56 56 56s56 -25 56 -56s-25 -56 -56 -56s-56 25 -56 56z" fill="currentColor"/>
<path transform="translate(8.3453, 6.2962) scale(0.0040, -0.0040)" d="M0 0c0 31 25 56 56 56s56 -25 56 -56s-25 -56 -56 -56s-56 25 -56 56z" fill="currentColor"/>
<path transform="translate(5.9333, 6.7962) scale(0.0040, -0.0040)" d="M213 112c-50 0 -69 -43 -69 -88c0 -77 57 -136 134 -136c50 0 69 43 69 88c0 77 -57 136 -134 136zM491 0c0 -43 -34 -75 -72 -96c-53 -29 -114 -40 -174 -40s-120 11 -173 40c-38 21 -72 53 -72 96s34 75 72 96c53 29 113 40 173 40s121 -11 174 -40
c38 -21 72 -53 72 -96z" fill="currentColor"/>
<path transform="translate(18.0534, 7.2962) scale(0.0040, -0.0040)" d="M213 112c-50 0 -69 -43 -69 -88c0 -77 57 -136 134 -136c50 0 69 43 69 88c0 77 -57 136 -134 136zM491 0c0 -43 -34 -75 -72 -96c-53 -29 -114 -40 -174 -40s-120 11 -173 40c-38 21 -72 53 -72 96s34 75 72 96c53 29 113 40 173 40s121 -11 174 -40
c38 -21 72 -53 72 -96z" fill="currentColor"/>
<path transform="translate(0.8000, 3.7962) scale(0.0040, -0.0040)" d="M557 -125c0 28 23 51 51 51s51 -23 51 -51s-23 -51 -51 -51s-51 23 -51 51zM557 125c0 28 23 51 51 51s51 -23 51 -51s-23 -51 -51 -51s-51 23 -51 51zM232 263c172 0 293 -88 293 -251c0 -263 -263 -414 -516 -521c-3 -3 -6 -4 -9 -4c-7 0 -13 6 -13 13c0 3 1 6 4 9
c202 118 412 265 412 493c0 120 -63 235 -171 235c-74 0 -129 -54 -154 -126c11 5 22 8 34 8c55 0 100 -45 100 -100c0 -58 -44 -106 -100 -106c-60 0 -112 47 -112 106c0 133 102 244 232 244z" fill="currentColor"/>
<text transform="translate(3.3670, 1.9120)" font-family="serif" font-size="2.7719" text-anchor="start" fill="currentColor">
<tspan>8.</tspan>
</text>
<path transform="translate(11.9934, 4.7962)" stroke-width="0.0800" stroke-linejoin="round" stroke-linecap="round" stroke="currentColor" fill="currentColor" d="M2.1620 3.0000C2.9092 3.7562 5.1128 3.7562 5.8600 3.0000L5.8600 3.0000C5.1128 3.6362 2.9092 3.6362 2.1620 3.0000z"/>
<path transform="translate(11.9934, 7.2962) scale(0.0040, -0.0040)" d="M213 112c-50 0 -69 -43 -69 -88c0 -77 57 -136 134 -136c50 0 69 43 69 88c0 77 -57 136 -134 136zM491 0c0 -43 -34 -75 -72 -96c-53 -29 -114 -40 -174 -40s-120 11 -173 40c-38 21 -72 53 -72 96s34 75 72 96c53 29 113 40 173 40s121 -11 174 -40
c38 -21 72 -53 72 -96z" fill="currentColor"/>
</svg>
